<svg width="536" height="602" viewBox="0 0 536 602" fill="none" xmlns="http://www.w3.org/2000/svg">
<path d="M115.145 217.712C115.657 217.712 115.913 219.077 115.913 221.808C115.913 223.685 115.742 225.477 115.401 227.184C115.23 228.891 114.974 229.744 114.633 229.744L97.737 228.976V264.56C97.737 266.267 97.0543 267.461 95.689 268.144L75.465 278.128C74.441 278.469 73.929 278.64 73.929 278.64C73.417 278.64 73.161 277.957 73.161 276.592V228.208C62.921 228.037 43.977 227.952 16.329 227.952C15.4757 227.952 14.793 227.611 14.281 226.928C13.769 226.245 13.8543 225.563 14.537 224.88L93.897 128.624C94.2383 128.283 94.7503 128.112 95.433 128.112C95.945 128.112 96.457 128.283 96.969 128.624C97.481 128.795 97.737 129.136 97.737 129.648V218.224C101.15 218.224 106.953 218.053 115.145 217.712ZM31.689 219.248C51.4863 219.248 65.3103 219.163 73.161 218.992V167.28L30.409 217.456C29.385 218.651 29.8117 219.248 31.689 219.248Z" fill="#9D0006" fill-opacity="0.7"/>
<path d="M359.16 410.624C359.501 410.624 359.672 411.477 359.672 413.184C359.672 415.061 359.501 416 359.16 416C342.776 416 326.904 413.184 311.544 407.552C297.72 415.232 282.787 419.072 266.744 419.072C250.701 419.072 236.365 415.317 223.736 407.808C211.107 400.299 201.208 390.229 194.04 377.6C187.043 364.8 183.544 350.891 183.544 335.872C183.544 317.269 188.237 301.141 197.624 287.488C207.181 273.835 219.555 263.509 234.744 256.512H235C235.341 256.512 235.683 256.768 236.024 257.28C236.365 257.792 236.451 258.219 236.28 258.56C231.672 264.192 227.917 269.397 225.016 274.176C222.285 278.955 219.896 285.269 217.848 293.12C215.971 300.971 215.032 310.613 215.032 322.048C215.032 340.48 217.677 356.608 222.968 370.432C228.259 384.085 235.512 394.581 244.728 401.92C253.944 409.088 264.184 412.672 275.448 412.672C285.347 412.672 294.392 409.771 302.584 403.968C283.811 395.435 268.792 383.488 257.528 368.128C246.435 352.597 240.888 335.701 240.888 317.44C240.888 305.152 243.448 294.144 248.568 284.416C253.859 274.688 260.941 267.093 269.816 261.632C278.861 256 288.931 253.184 300.024 253.184C312.312 253.184 322.979 256.597 332.024 263.424C341.24 270.08 348.237 279.04 353.016 290.304C357.965 301.397 360.44 313.259 360.44 325.888C360.44 341.248 356.941 355.499 349.944 368.64C343.117 381.781 333.731 392.704 321.784 401.408C333.56 407.552 346.019 410.624 359.16 410.624ZM272.12 304.128C272.12 324.267 275.619 342.187 282.616 357.888C289.784 373.589 299.512 385.963 311.8 395.008C317.261 388.181 321.528 379.563 324.6 369.152C327.672 358.571 329.208 346.624 329.208 333.312C329.208 319.147 327.501 306.432 324.088 295.168C320.845 283.733 316.493 274.859 311.032 268.544C305.571 262.229 299.683 259.072 293.368 259.072C286.371 259.072 281.08 263.083 277.496 271.104C273.912 279.125 272.12 290.133 272.12 304.128Z" fill="#9D0006" fill-opacity="0.7"/>
<path d="M519.145 523.712C519.657 523.712 519.913 525.077 519.913 527.808C519.913 529.685 519.742 531.477 519.401 533.184C519.23 534.891 518.974 535.744 518.633 535.744L501.737 534.976V570.56C501.737 572.267 501.054 573.461 499.689 574.144L479.465 584.128C478.441 584.469 477.929 584.64 477.929 584.64C477.417 584.64 477.161 583.957 477.161 582.592V534.208C466.921 534.037 447.977 533.952 420.329 533.952C419.476 533.952 418.793 533.611 418.281 532.928C417.769 532.245 417.854 531.563 418.537 530.88L497.897 434.624C498.238 434.283 498.75 434.112 499.433 434.112C499.945 434.112 500.457 434.283 500.969 434.624C501.481 434.795 501.737 435.136 501.737 435.648V524.224C505.15 524.224 510.953 524.053 519.145 523.712ZM435.689 525.248C455.486 525.248 469.31 525.163 477.161 524.992V473.28L434.409 523.456C433.385 524.651 433.812 525.248 435.689 525.248Z" fill="#9D0006" fill-opacity="0.7"/>
</svg>
