<svg width="149" height="58" viewBox="0 0 149 58" fill="none" xmlns="http://www.w3.org/2000/svg">
<path d="M145.915 57.9969C146.742 58.0439 147.451 57.4115 147.498 56.5844L148.264 43.1061C148.311 42.279 147.678 41.5704 146.851 41.5234C146.024 41.4764 145.315 42.1088 145.268 42.9359L144.588 54.9166L132.607 54.2359C131.78 54.1889 131.071 54.8213 131.024 55.6484C130.977 56.4755 131.61 57.1841 132.437 57.2311L145.915 57.9969ZM3.02413 21.5952C17.9652 7.63387 34.1921 2.88924 50.17 3.57597C66.203 4.26507 82.0593 10.43 96.134 18.4284C110.198 26.4205 122.391 36.1908 131.077 43.9757C135.417 47.8654 138.875 51.2532 141.245 53.6657C142.429 54.8718 143.342 55.8337 143.957 56.4923C144.264 56.8215 144.497 57.0749 144.652 57.245C144.729 57.3301 144.788 57.3943 144.826 57.4368C144.845 57.458 144.859 57.4738 144.869 57.4841C144.873 57.4892 144.876 57.4929 144.879 57.4953C144.88 57.4965 144.88 57.4971 144.881 57.4977C144.881 57.4981 144.881 57.4981 146 56.4993C147.119 55.5005 147.119 55.4998 147.118 55.4987C147.117 55.4979 147.116 55.4964 147.114 55.4948C147.111 55.4915 147.107 55.4867 147.101 55.4806C147.091 55.4684 147.075 55.4506 147.054 55.4274C147.012 55.3809 146.95 55.3126 146.868 55.2234C146.706 55.0451 146.465 54.7832 146.15 54.4452C145.519 53.7693 144.589 52.7889 143.385 51.5633C140.977 49.1126 137.474 45.68 133.079 41.7416C124.297 33.8702 111.927 23.953 97.6162 15.8201C83.3158 7.69346 66.9846 1.2959 50.2988 0.578741C33.5579 -0.140783 16.5348 4.86459 0.975893 19.4032L3.02413 21.5952Z" fill="#3C3836"/>
</svg>
