<svg width="194" height="65" viewBox="0 0 194 65" fill="none" xmlns="http://www.w3.org/2000/svg">
<path d="M15.509 43.6832C18.0263 44.1099 20.0317 44.5365 21.525 44.9632C23.0183 45.3899 24.2983 46.1152 25.365 47.1392C26.4743 48.1632 27.029 49.6139 27.029 51.4912C27.029 53.7952 26.2823 55.9499 24.789 57.9552C23.3383 59.9605 21.3543 61.5605 18.837 62.7552C16.3623 63.9499 13.6743 64.5472 10.773 64.5472C7.61567 64.5472 5.03433 63.8645 3.029 62.4992C1.02367 61.1339 0.021 59.3632 0.021 57.1872C0.021 55.7365 0.490333 54.2432 1.429 52.7072C2.36767 51.1712 4.117 49.4859 6.677 47.6512C5.397 47.2672 4.39433 46.7125 3.669 45.9872C2.98633 45.2619 2.645 44.2805 2.645 43.0432C2.645 41.9765 3.05033 40.8885 3.861 39.7792C4.71433 38.6272 6.01567 37.5605 7.765 36.5792C5.88767 35.9392 4.437 34.9579 3.413 33.6352C2.389 32.3125 1.877 30.8832 1.877 29.3472C1.877 27.6405 2.43167 26.1899 3.541 24.9952C4.65033 23.8005 6.05833 22.9045 7.765 22.3072C9.47167 21.6672 11.1783 21.3472 12.885 21.3472C15.7437 21.3472 18.1117 22.0512 19.989 23.4592C21.141 22.6912 22.2717 22.1152 23.381 21.7312C24.4903 21.3472 25.685 21.1552 26.965 21.1552C27.3063 21.1552 27.477 21.7525 27.477 22.9472C27.477 23.5445 27.3917 24.2059 27.221 24.9312C27.0503 25.6565 26.901 25.9552 26.773 25.8272C24.981 25.1019 23.381 24.7392 21.973 24.7392H21.461C22.5703 26.0619 23.125 27.5552 23.125 29.2192C23.125 30.8405 22.5703 32.2699 21.461 33.5072C20.3943 34.7019 19.0077 35.6192 17.301 36.2592C15.5943 36.8992 13.845 37.2192 12.053 37.2192C10.901 37.2192 9.813 37.0912 8.789 36.8352C7.93567 37.5179 7.509 38.3925 7.509 39.4592C7.509 40.3979 7.85033 41.1232 8.533 41.6352C9.25833 42.1472 10.133 42.5312 11.157 42.7872C12.181 43.0432 13.6317 43.3419 15.509 43.6832ZM10.773 22.5632C8.981 22.5632 8.085 24.2485 8.085 27.6192C8.085 29.8379 8.61833 31.8005 9.685 33.5072C10.7517 35.2139 12.117 36.0672 13.781 36.0672C14.5917 36.0672 15.2957 35.6405 15.893 34.7872C16.533 33.9339 16.853 32.5899 16.853 30.7552C16.853 28.4512 16.2557 26.5099 15.061 24.9312C13.8663 23.3525 12.437 22.5632 10.773 22.5632ZM14.165 62.4992C16.3837 62.4992 18.1757 61.8379 19.541 60.5152C20.949 59.2352 21.653 57.5072 21.653 55.3312C21.653 53.7099 21.1837 52.4512 20.245 51.5552C19.349 50.7019 18.2397 50.0832 16.917 49.6992C15.637 49.3579 13.8663 49.0165 11.605 48.6752L8.149 48.0992C6.95433 49.5072 6.357 51.5125 6.357 54.1152C6.357 56.8032 7.08233 58.8725 8.533 60.3232C9.98367 61.7739 11.861 62.4992 14.165 62.4992ZM43.168 47.3312C40.5227 47.3312 38.1973 46.7339 36.192 45.5392C34.2293 44.3019 32.7147 42.6592 31.648 40.6112C30.5813 38.5205 30.048 36.2592 30.048 33.8272C30.048 31.0539 30.752 28.7072 32.16 26.7872C33.568 24.8245 35.36 23.3739 37.536 22.4352C39.712 21.4539 41.952 20.9632 44.256 20.9632C46.9013 20.9632 49.2053 21.5819 51.168 22.8192C53.1307 24.0565 54.624 25.6992 55.648 27.7472C56.7147 29.7525 57.248 31.9072 57.248 34.2112C57.248 36.7712 56.608 39.0539 55.328 41.0592C54.048 43.0219 52.32 44.5579 50.144 45.6672C48.0107 46.7765 45.6853 47.3312 43.168 47.3312ZM45.088 45.9872C46.752 45.9872 48.0107 45.1765 48.864 43.5552C49.76 41.8912 50.208 39.5232 50.208 36.4512C50.208 33.4645 49.824 30.9045 49.056 28.7712C48.288 26.6379 47.2853 25.0379 46.048 23.9712C44.8107 22.8619 43.488 22.3072 42.08 22.3072C38.6667 22.3072 36.96 25.3579 36.96 31.4592C36.96 34.3179 37.3227 36.8565 38.048 39.0752C38.7733 41.2512 39.7547 42.9579 40.992 44.1952C42.2293 45.3899 43.5947 45.9872 45.088 45.9872ZM94.6645 20.9632C96.5845 20.9632 98.3552 21.4112 99.9765 22.3072C101.598 23.2032 102.878 24.5472 103.817 26.3392C104.798 28.1312 105.289 30.3072 105.289 32.8672C105.289 35.9392 104.627 38.5632 103.305 40.7392C102.025 42.9152 100.318 44.5579 98.1845 45.6672C96.0938 46.7765 93.8538 47.3312 91.4645 47.3312C89.8432 47.3312 88.2432 47.0752 86.6645 46.5632C85.1285 46.0512 83.7205 45.3045 82.4405 44.3232L76.6165 46.9472H76.4885C76.3178 46.9472 76.2112 46.8619 76.1685 46.6912C76.1258 46.5205 76.1898 46.4139 76.3605 46.3712C77.3845 45.7739 78.1525 44.9632 78.6645 43.9392C79.2192 42.8725 79.4965 41.5285 79.4965 39.9072V8.8032C79.4965 7.30987 79.3472 6.2432 79.0485 5.6032C78.7925 4.9632 78.3018 4.6432 77.5765 4.6432C77.0218 4.6432 76.2325 4.87787 75.2085 5.34721H75.1445C74.9738 5.34721 74.8458 5.24054 74.7605 5.02721C74.6752 4.7712 74.6752 4.62187 74.7605 4.5792L84.1045 0.163204L84.4245 0.099205C84.6378 0.099205 84.8512 0.205872 85.0645 0.419205C85.3205 0.589872 85.4485 0.760539 85.4485 0.931206V25.2512C86.8565 23.9285 88.2858 22.8832 89.7365 22.1152C91.1872 21.3472 92.8298 20.9632 94.6645 20.9632ZM93.0005 46.0512C94.8352 46.0512 96.2432 45.1125 97.2245 43.2352C98.2058 41.3579 98.6965 38.7339 98.6965 35.3632C98.6965 31.6512 98.0778 28.8992 96.8405 27.1072C95.6032 25.2725 93.8752 24.3552 91.6565 24.3552C89.6512 24.3552 87.5818 25.0805 85.4485 26.5312V35.9392C85.4485 38.2859 85.8538 40.2272 86.6645 41.7632C87.4752 43.2565 88.4565 44.3445 89.6085 45.0272C90.7605 45.7099 91.8912 46.0512 93.0005 46.0512ZM134.129 43.0432C134.299 43.0432 134.406 43.1499 134.449 43.3632C134.534 43.5339 134.491 43.6619 134.321 43.7472L127.729 46.8832C127.558 46.9685 127.345 47.0112 127.089 47.0112C126.449 47.0112 125.809 46.6912 125.169 46.0512C124.571 45.4112 124.145 44.5365 123.889 43.4272L120.945 45.0272C119.835 45.5819 118.683 46.0512 117.489 46.4352C116.294 46.7765 115.227 46.9472 114.289 46.9472C112.923 46.9472 111.835 46.6059 111.025 45.9232C110.257 45.1979 109.873 44.1739 109.873 42.8512C109.873 41.8699 110.107 41.0805 110.577 40.4832C111.089 39.8859 111.793 39.3952 112.689 39.0112C113.627 38.5845 115.099 38.0299 117.105 37.3472L123.633 35.2352V30.1792C123.633 27.6192 123.377 25.7419 122.865 24.5472C122.353 23.3099 121.521 22.6912 120.369 22.6912C119.345 22.6912 118.534 23.0752 117.937 23.8432C117.339 24.6112 116.977 25.8699 116.849 27.6192C116.593 30.0085 115.334 31.2032 113.073 31.2032C111.067 31.2032 110.065 30.3285 110.065 28.5792C110.065 27.4272 110.79 26.2752 112.241 25.1232C113.691 23.9712 115.441 23.0325 117.489 22.3072C119.537 21.5819 121.329 21.2192 122.865 21.2192C124.87 21.2192 126.491 21.8165 127.729 23.0112C129.009 24.2059 129.649 25.9552 129.649 28.2592V39.5872C129.649 40.8245 129.862 41.7845 130.289 42.4672C130.758 43.1499 131.398 43.4912 132.209 43.4912C132.806 43.4912 133.425 43.3419 134.065 43.0432H134.129ZM123.697 42.4032C123.654 42.1045 123.633 41.6565 123.633 41.0592V36.3232L120.113 37.6032C118.961 38.0299 118.129 38.4992 117.617 39.0112C117.147 39.5232 116.913 40.1419 116.913 40.8672C116.913 41.7632 117.169 42.4672 117.681 42.9792C118.193 43.4912 118.833 43.7472 119.601 43.7472C120.539 43.7472 121.627 43.4485 122.865 42.8512L123.697 42.4032ZM149.226 47.2672C146.41 47.2672 144.021 46.6699 142.058 45.4752C140.138 44.2379 138.687 42.6592 137.706 40.7392C136.767 38.7765 136.298 36.7285 136.298 34.5952C136.298 31.9072 137.045 29.5605 138.538 27.5552C140.031 25.5072 141.93 23.9499 144.234 22.8832C146.581 21.7739 148.97 21.2192 151.402 21.2192C153.45 21.2192 155.285 21.6459 156.906 22.4992C158.57 23.3525 159.402 24.5259 159.402 26.0192C159.402 26.8299 159.082 27.5339 158.442 28.1312C157.845 28.6859 156.991 28.9632 155.882 28.9632C154.858 28.9632 154.047 28.7072 153.45 28.1952C152.853 27.6405 152.362 26.8085 151.978 25.6992C151.594 24.5045 151.21 23.6939 150.826 23.2672C150.485 22.7979 149.845 22.5632 148.906 22.5632C147.071 22.5632 145.599 23.4805 144.49 25.3152C143.423 27.1072 142.89 29.4965 142.89 32.4832C142.89 36.0245 143.679 38.8619 145.258 40.9952C146.837 43.0859 149.354 44.1312 152.81 44.1312C153.962 44.1312 154.943 44.0032 155.754 43.7472C156.607 43.4912 157.674 43.0645 158.954 42.4672H159.018C159.146 42.4672 159.253 42.5312 159.338 42.6592C159.466 42.7872 159.487 42.8939 159.402 42.9792C157.823 44.4299 156.245 45.5179 154.666 46.2432C153.087 46.9259 151.274 47.2672 149.226 47.2672ZM193.246 45.7312C193.374 45.7312 193.438 45.8592 193.438 46.1152C193.438 46.3712 193.374 46.4992 193.246 46.4992C192.136 46.4992 191.262 46.4779 190.622 46.4352L186.782 46.3712L181.854 46.4352C181.128 46.4779 180.147 46.4992 178.91 46.4992C178.782 46.4992 178.718 46.3712 178.718 46.1152C178.718 45.8592 178.782 45.7312 178.91 45.7312C180.446 45.7312 181.214 45.2832 181.214 44.3872C181.214 43.9179 181.043 43.4912 180.702 43.1072L173.406 33.7632L172.19 34.8512V41.3152C172.19 43.0219 172.424 44.1952 172.894 44.8352C173.406 45.4325 174.323 45.7312 175.646 45.7312C175.816 45.7312 175.902 45.8592 175.902 46.1152C175.902 46.3712 175.816 46.4992 175.646 46.4992C174.536 46.4992 173.64 46.4779 172.958 46.4352L169.246 46.3712L165.406 46.4352C164.766 46.4779 163.891 46.4992 162.782 46.4992C162.696 46.4992 162.654 46.3712 162.654 46.1152C162.654 45.8592 162.696 45.7312 162.782 45.7312C164.104 45.7312 165 45.4325 165.47 44.8352C165.982 44.1952 166.238 43.0219 166.238 41.3152V8.8032C166.238 7.30987 166.088 6.2432 165.79 5.6032C165.534 4.9632 165.064 4.6432 164.382 4.6432C163.784 4.6432 162.974 4.87787 161.95 5.34721H161.886C161.758 5.34721 161.63 5.24054 161.502 5.02721C161.416 4.7712 161.416 4.62187 161.502 4.5792L170.845 0.163204L171.166 0.099205C171.379 0.099205 171.592 0.205872 171.806 0.419205C172.062 0.589872 172.19 0.760539 172.19 0.931206V33.3792L178.142 27.6192C179.251 26.5952 179.806 25.5499 179.806 24.4832C179.806 23.9285 179.592 23.4805 179.166 23.1392C178.739 22.7552 178.142 22.5632 177.374 22.5632C177.288 22.5632 177.246 22.4352 177.246 22.1792C177.246 21.9232 177.288 21.7952 177.374 21.7952C178.611 21.7952 179.571 21.8165 180.253 21.8592L185.31 21.9232L189.982 21.8592C190.579 21.8165 191.411 21.7952 192.478 21.7952C192.606 21.7952 192.67 21.9232 192.67 22.1792C192.67 22.4352 192.606 22.5632 192.478 22.5632C190.643 22.5632 188.531 23.0325 186.142 23.9712C183.795 24.8672 181.683 26.1899 179.806 27.9392L177.502 30.0512L186.27 41.3152C187.507 42.8512 188.68 43.9819 189.79 44.7072C190.942 45.3899 192.094 45.7312 193.246 45.7312Z" fill="#3C3836"/>
<path d="M28 52.8992H192.861V56.0992H28V52.8992Z" fill="#3C3836"/>
</svg>
